<?xml version="1.0" encoding="UTF-8"?>
<mxfile host="app.diagrams.net" agent="Mozilla/5.0 (Windows NT 10.0; Win64; x64) AppleWebKit/537.36 (KHTML, like Gecko) Chrome/133.0.0.0 Safari/537.36" version="26.0.16" pages="3">
  <diagram name="UseCase" id="r2emAAkZALd0AYRVRzv8">
    <mxGraphModel grid="1" page="1" gridSize="10" guides="1" tooltips="1" connect="1" arrows="1" fold="1" pageScale="1" pageWidth="850" pageHeight="1100" math="0" shadow="0">
      <root>
        <mxCell id="0" />
        <mxCell id="1" parent="0" />
        <mxCell id="pdPEtVs2_NFhO_Y5bPxr-1" value="Student&lt;div&gt;&lt;br&gt;&lt;/div&gt;" style="shape=umlActor;verticalLabelPosition=bottom;verticalAlign=top;html=1;outlineConnect=0;" vertex="1" parent="1">
          <mxGeometry x="-710" y="130" width="30" height="60" as="geometry" />
        </mxCell>
        <mxCell id="pdPEtVs2_NFhO_Y5bPxr-2" value="&lt;div&gt;Librarian&lt;/div&gt;" style="shape=umlActor;verticalLabelPosition=bottom;verticalAlign=top;html=1;outlineConnect=0;" vertex="1" parent="1">
          <mxGeometry x="-290" y="130" width="30" height="60" as="geometry" />
        </mxCell>
        <mxCell id="pdPEtVs2_NFhO_Y5bPxr-3" value="Borrow Book&amp;nbsp;" style="ellipse;whiteSpace=wrap;html=1;" vertex="1" parent="1">
          <mxGeometry x="-700" y="440" width="120" height="80" as="geometry" />
        </mxCell>
        <mxCell id="pdPEtVs2_NFhO_Y5bPxr-4" value="Return Book" style="ellipse;whiteSpace=wrap;html=1;" vertex="1" parent="1">
          <mxGeometry x="-850" y="440" width="120" height="80" as="geometry" />
        </mxCell>
        <mxCell id="pdPEtVs2_NFhO_Y5bPxr-5" value="Book Study Room" style="ellipse;whiteSpace=wrap;html=1;" vertex="1" parent="1">
          <mxGeometry x="-550" y="450" width="120" height="80" as="geometry" />
        </mxCell>
        <mxCell id="pdPEtVs2_NFhO_Y5bPxr-6" value="" style="endArrow=none;html=1;rounded=0;exitX=0.575;exitY=0.013;exitDx=0;exitDy=0;exitPerimeter=0;" edge="1" parent="1" source="pdPEtVs2_NFhO_Y5bPxr-4" target="pdPEtVs2_NFhO_Y5bPxr-1">
          <mxGeometry width="50" height="50" relative="1" as="geometry">
            <mxPoint x="-20" y="330" as="sourcePoint" />
            <mxPoint x="30" y="280" as="targetPoint" />
          </mxGeometry>
        </mxCell>
        <mxCell id="pdPEtVs2_NFhO_Y5bPxr-7" value="" style="endArrow=none;html=1;rounded=0;" edge="1" parent="1" source="pdPEtVs2_NFhO_Y5bPxr-3" target="pdPEtVs2_NFhO_Y5bPxr-1">
          <mxGeometry width="50" height="50" relative="1" as="geometry">
            <mxPoint x="-731" y="331" as="sourcePoint" />
            <mxPoint x="-640" y="184" as="targetPoint" />
          </mxGeometry>
        </mxCell>
        <mxCell id="pdPEtVs2_NFhO_Y5bPxr-8" value="" style="endArrow=none;html=1;rounded=0;" edge="1" parent="1" source="pdPEtVs2_NFhO_Y5bPxr-5" target="pdPEtVs2_NFhO_Y5bPxr-1">
          <mxGeometry width="50" height="50" relative="1" as="geometry">
            <mxPoint x="-721" y="341" as="sourcePoint" />
            <mxPoint x="-640" y="180" as="targetPoint" />
          </mxGeometry>
        </mxCell>
        <mxCell id="pdPEtVs2_NFhO_Y5bPxr-9" value="" style="endArrow=none;html=1;rounded=0;exitX=0.592;exitY=0;exitDx=0;exitDy=0;exitPerimeter=0;" edge="1" parent="1" source="pdPEtVs2_NFhO_Y5bPxr-10" target="pdPEtVs2_NFhO_Y5bPxr-2">
          <mxGeometry width="50" height="50" relative="1" as="geometry">
            <mxPoint x="-290" y="320" as="sourcePoint" />
            <mxPoint x="-620" y="204" as="targetPoint" />
          </mxGeometry>
        </mxCell>
        <mxCell id="pdPEtVs2_NFhO_Y5bPxr-10" value="Track Book Loans" style="ellipse;whiteSpace=wrap;html=1;" vertex="1" parent="1">
          <mxGeometry x="-170" y="450" width="120" height="80" as="geometry" />
        </mxCell>
        <mxCell id="pdPEtVs2_NFhO_Y5bPxr-11" value="Manage Library Resource" style="ellipse;whiteSpace=wrap;html=1;" vertex="1" parent="1">
          <mxGeometry x="-360" y="450" width="120" height="80" as="geometry" />
        </mxCell>
        <mxCell id="pdPEtVs2_NFhO_Y5bPxr-12" value="" style="endArrow=none;html=1;rounded=0;entryX=0;entryY=1;entryDx=0;entryDy=0;entryPerimeter=0;" edge="1" parent="1" source="pdPEtVs2_NFhO_Y5bPxr-11" target="pdPEtVs2_NFhO_Y5bPxr-2">
          <mxGeometry width="50" height="50" relative="1" as="geometry">
            <mxPoint x="-280" y="330" as="sourcePoint" />
            <mxPoint x="-200" y="187" as="targetPoint" />
          </mxGeometry>
        </mxCell>
        <mxCell id="pdPEtVs2_NFhO_Y5bPxr-13" value="Lirbrary System" style="shape=umlActor;verticalLabelPosition=bottom;verticalAlign=top;html=1;outlineConnect=0;" vertex="1" parent="1">
          <mxGeometry y="130" width="30" height="60" as="geometry" />
        </mxCell>
        <mxCell id="pdPEtVs2_NFhO_Y5bPxr-14" value="Check Penalty" style="ellipse;whiteSpace=wrap;html=1;" vertex="1" parent="1">
          <mxGeometry x="70" y="450" width="120" height="80" as="geometry" />
        </mxCell>
        <mxCell id="pdPEtVs2_NFhO_Y5bPxr-15" value="" style="endArrow=none;html=1;rounded=0;exitX=0.667;exitY=0;exitDx=0;exitDy=0;exitPerimeter=0;" edge="1" parent="1" source="pdPEtVs2_NFhO_Y5bPxr-10" target="pdPEtVs2_NFhO_Y5bPxr-13">
          <mxGeometry width="50" height="50" relative="1" as="geometry">
            <mxPoint x="-280" y="460" as="sourcePoint" />
            <mxPoint x="-280" y="200" as="targetPoint" />
          </mxGeometry>
        </mxCell>
        <mxCell id="pdPEtVs2_NFhO_Y5bPxr-16" value="" style="endArrow=none;html=1;rounded=0;entryX=1;entryY=1;entryDx=0;entryDy=0;entryPerimeter=0;exitX=0.5;exitY=0;exitDx=0;exitDy=0;" edge="1" parent="1" source="pdPEtVs2_NFhO_Y5bPxr-14" target="pdPEtVs2_NFhO_Y5bPxr-13">
          <mxGeometry width="50" height="50" relative="1" as="geometry">
            <mxPoint x="-270" y="470" as="sourcePoint" />
            <mxPoint x="-270" y="210" as="targetPoint" />
          </mxGeometry>
        </mxCell>
        <mxCell id="pdPEtVs2_NFhO_Y5bPxr-17" value="Login" style="ellipse;whiteSpace=wrap;html=1;" vertex="1" parent="1">
          <mxGeometry x="-550" y="130" width="120" height="80" as="geometry" />
        </mxCell>
        <mxCell id="pdPEtVs2_NFhO_Y5bPxr-18" value="" style="endArrow=none;html=1;rounded=0;exitX=0;exitY=0.5;exitDx=0;exitDy=0;" edge="1" parent="1" source="pdPEtVs2_NFhO_Y5bPxr-17" target="pdPEtVs2_NFhO_Y5bPxr-1">
          <mxGeometry width="50" height="50" relative="1" as="geometry">
            <mxPoint x="-503" y="463" as="sourcePoint" />
            <mxPoint x="-670" y="194" as="targetPoint" />
          </mxGeometry>
        </mxCell>
        <mxCell id="pdPEtVs2_NFhO_Y5bPxr-19" value="" style="endArrow=none;html=1;rounded=0;exitX=1;exitY=0.5;exitDx=0;exitDy=0;" edge="1" parent="1" source="pdPEtVs2_NFhO_Y5bPxr-17" target="pdPEtVs2_NFhO_Y5bPxr-2">
          <mxGeometry width="50" height="50" relative="1" as="geometry">
            <mxPoint x="-493" y="473" as="sourcePoint" />
            <mxPoint x="-660" y="204" as="targetPoint" />
          </mxGeometry>
        </mxCell>
      </root>
    </mxGraphModel>
  </diagram>
  <diagram id="2tAsBaHokrXAsCV5W5QJ" name="ActivityDiagram">
    <mxGraphModel grid="1" page="1" gridSize="10" guides="1" tooltips="1" connect="1" arrows="1" fold="1" pageScale="1" pageWidth="850" pageHeight="1100" math="0" shadow="0">
      <root>
        <mxCell id="0" />
        <mxCell id="1" parent="0" />
        <mxCell id="nCR_m23hthAuBQH_t1cP-4" value="Login" style="html=1;align=center;verticalAlign=middle;rounded=1;absoluteArcSize=1;arcSize=10;dashed=0;whiteSpace=wrap;" vertex="1" parent="1">
          <mxGeometry x="125" y="170" width="140" height="70" as="geometry" />
        </mxCell>
        <mxCell id="nCR_m23hthAuBQH_t1cP-5" value="Student with books function" style="text;html=1;align=center;verticalAlign=middle;resizable=0;points=[];autosize=1;strokeColor=none;fillColor=none;" vertex="1" parent="1">
          <mxGeometry x="110" y="20" width="170" height="30" as="geometry" />
        </mxCell>
        <mxCell id="nCR_m23hthAuBQH_t1cP-11" style="edgeStyle=orthogonalEdgeStyle;rounded=0;orthogonalLoop=1;jettySize=auto;html=1;exitX=0.5;exitY=1;exitDx=0;exitDy=0;" edge="1" parent="1" source="nCR_m23hthAuBQH_t1cP-10" target="nCR_m23hthAuBQH_t1cP-4">
          <mxGeometry relative="1" as="geometry" />
        </mxCell>
        <mxCell id="nCR_m23hthAuBQH_t1cP-10" value="" style="ellipse;html=1;shape=endState;fillColor=#000000;strokeColor=#ff0000;" vertex="1" parent="1">
          <mxGeometry x="180" y="70" width="30" height="30" as="geometry" />
        </mxCell>
        <mxCell id="nCR_m23hthAuBQH_t1cP-14" value="BorrowBooks" style="html=1;align=center;verticalAlign=middle;rounded=1;absoluteArcSize=1;arcSize=10;dashed=0;whiteSpace=wrap;" vertex="1" parent="1">
          <mxGeometry y="530" width="140" height="70" as="geometry" />
        </mxCell>
        <mxCell id="nCR_m23hthAuBQH_t1cP-17" value="" style="html=1;points=[];perimeter=orthogonalPerimeter;fillColor=strokeColor;rotation=90;" vertex="1" parent="1">
          <mxGeometry x="192.5" y="170" width="5" height="270" as="geometry" />
        </mxCell>
        <mxCell id="nCR_m23hthAuBQH_t1cP-18" style="edgeStyle=orthogonalEdgeStyle;rounded=0;orthogonalLoop=1;jettySize=auto;html=1;exitX=0.5;exitY=1;exitDx=0;exitDy=0;entryX=0.38;entryY=0.502;entryDx=0;entryDy=0;entryPerimeter=0;" edge="1" parent="1" source="nCR_m23hthAuBQH_t1cP-4" target="nCR_m23hthAuBQH_t1cP-17">
          <mxGeometry relative="1" as="geometry" />
        </mxCell>
        <mxCell id="nCR_m23hthAuBQH_t1cP-34" style="edgeStyle=orthogonalEdgeStyle;rounded=0;orthogonalLoop=1;jettySize=auto;html=1;exitX=0.5;exitY=1;exitDx=0;exitDy=0;entryX=0.5;entryY=0;entryDx=0;entryDy=0;" edge="1" parent="1" source="nCR_m23hthAuBQH_t1cP-20" target="nCR_m23hthAuBQH_t1cP-33">
          <mxGeometry relative="1" as="geometry" />
        </mxCell>
        <mxCell id="nCR_m23hthAuBQH_t1cP-20" value="ReturnBooks" style="html=1;align=center;verticalAlign=middle;rounded=1;absoluteArcSize=1;arcSize=10;dashed=0;whiteSpace=wrap;" vertex="1" parent="1">
          <mxGeometry x="240" y="390" width="140" height="70" as="geometry" />
        </mxCell>
        <mxCell id="nCR_m23hthAuBQH_t1cP-22" value="" style="endArrow=classic;html=1;rounded=0;entryX=0.5;entryY=0;entryDx=0;entryDy=0;" edge="1" parent="1" target="nCR_m23hthAuBQH_t1cP-20">
          <mxGeometry width="50" height="50" relative="1" as="geometry">
            <mxPoint x="310" y="300" as="sourcePoint" />
            <mxPoint x="250" y="340" as="targetPoint" />
          </mxGeometry>
        </mxCell>
        <mxCell id="nCR_m23hthAuBQH_t1cP-27" style="edgeStyle=orthogonalEdgeStyle;rounded=0;orthogonalLoop=1;jettySize=auto;html=1;exitX=0.5;exitY=1;exitDx=0;exitDy=0;entryX=0.5;entryY=0;entryDx=0;entryDy=0;" edge="1" parent="1" source="nCR_m23hthAuBQH_t1cP-25" target="nCR_m23hthAuBQH_t1cP-14">
          <mxGeometry relative="1" as="geometry" />
        </mxCell>
        <mxCell id="nCR_m23hthAuBQH_t1cP-31" style="edgeStyle=orthogonalEdgeStyle;rounded=0;orthogonalLoop=1;jettySize=auto;html=1;exitX=1;exitY=0.5;exitDx=0;exitDy=0;" edge="1" parent="1" source="nCR_m23hthAuBQH_t1cP-25">
          <mxGeometry relative="1" as="geometry">
            <mxPoint x="70" y="700" as="targetPoint" />
            <Array as="points">
              <mxPoint x="180" y="440" />
              <mxPoint x="180" y="700" />
            </Array>
          </mxGeometry>
        </mxCell>
        <mxCell id="nCR_m23hthAuBQH_t1cP-25" value="Student &quot;penalized&quot; checking" style="rhombus;whiteSpace=wrap;html=1;" vertex="1" parent="1">
          <mxGeometry x="20" y="400" width="100" height="80" as="geometry" />
        </mxCell>
        <mxCell id="nCR_m23hthAuBQH_t1cP-26" value="" style="endArrow=classic;html=1;rounded=0;entryX=0.5;entryY=0;entryDx=0;entryDy=0;exitX=0.86;exitY=0.956;exitDx=0;exitDy=0;exitPerimeter=0;" edge="1" parent="1" source="nCR_m23hthAuBQH_t1cP-17" target="nCR_m23hthAuBQH_t1cP-25">
          <mxGeometry width="50" height="50" relative="1" as="geometry">
            <mxPoint x="120" y="310" as="sourcePoint" />
            <mxPoint x="120" y="400" as="targetPoint" />
          </mxGeometry>
        </mxCell>
        <mxCell id="nCR_m23hthAuBQH_t1cP-28" value="No" style="text;html=1;align=center;verticalAlign=middle;resizable=0;points=[];autosize=1;strokeColor=none;fillColor=none;" vertex="1" parent="1">
          <mxGeometry x="60" y="488" width="40" height="30" as="geometry" />
        </mxCell>
        <mxCell id="nCR_m23hthAuBQH_t1cP-29" value="" style="html=1;points=[];perimeter=orthogonalPerimeter;fillColor=strokeColor;rotation=90;" vertex="1" parent="1">
          <mxGeometry x="202.5" y="610" width="5" height="330" as="geometry" />
        </mxCell>
        <mxCell id="nCR_m23hthAuBQH_t1cP-30" style="edgeStyle=orthogonalEdgeStyle;rounded=0;orthogonalLoop=1;jettySize=auto;html=1;exitX=0.5;exitY=1;exitDx=0;exitDy=0;entryX=0.62;entryY=0.91;entryDx=0;entryDy=0;entryPerimeter=0;" edge="1" parent="1" source="nCR_m23hthAuBQH_t1cP-14" target="nCR_m23hthAuBQH_t1cP-29">
          <mxGeometry relative="1" as="geometry" />
        </mxCell>
        <mxCell id="nCR_m23hthAuBQH_t1cP-32" value="Yes" style="text;html=1;align=center;verticalAlign=middle;resizable=0;points=[];autosize=1;strokeColor=none;fillColor=none;" vertex="1" parent="1">
          <mxGeometry x="175" y="550" width="40" height="30" as="geometry" />
        </mxCell>
        <mxCell id="nCR_m23hthAuBQH_t1cP-41" style="edgeStyle=orthogonalEdgeStyle;rounded=0;orthogonalLoop=1;jettySize=auto;html=1;exitX=1;exitY=0.5;exitDx=0;exitDy=0;entryX=0.5;entryY=0;entryDx=0;entryDy=0;" edge="1" parent="1" source="nCR_m23hthAuBQH_t1cP-33" target="nCR_m23hthAuBQH_t1cP-38">
          <mxGeometry relative="1" as="geometry">
            <mxPoint x="450" y="551.8571428571429" as="targetPoint" />
          </mxGeometry>
        </mxCell>
        <mxCell id="nCR_m23hthAuBQH_t1cP-33" value="(in due time) before returning time" style="rhombus;whiteSpace=wrap;html=1;" vertex="1" parent="1">
          <mxGeometry x="265" y="505" width="90" height="95" as="geometry" />
        </mxCell>
        <mxCell id="nCR_m23hthAuBQH_t1cP-35" style="edgeStyle=orthogonalEdgeStyle;rounded=0;orthogonalLoop=1;jettySize=auto;html=1;exitX=0.5;exitY=1;exitDx=0;exitDy=0;entryX=0.46;entryY=0.183;entryDx=0;entryDy=0;entryPerimeter=0;" edge="1" parent="1" source="nCR_m23hthAuBQH_t1cP-33" target="nCR_m23hthAuBQH_t1cP-29">
          <mxGeometry relative="1" as="geometry" />
        </mxCell>
        <mxCell id="nCR_m23hthAuBQH_t1cP-36" value="Yes" style="text;html=1;align=center;verticalAlign=middle;resizable=0;points=[];autosize=1;strokeColor=none;fillColor=none;" vertex="1" parent="1">
          <mxGeometry x="250" y="628" width="40" height="30" as="geometry" />
        </mxCell>
        <mxCell id="nCR_m23hthAuBQH_t1cP-40" style="edgeStyle=orthogonalEdgeStyle;rounded=0;orthogonalLoop=1;jettySize=auto;html=1;exitX=0.5;exitY=1;exitDx=0;exitDy=0;" edge="1" parent="1" source="nCR_m23hthAuBQH_t1cP-38">
          <mxGeometry relative="1" as="geometry">
            <mxPoint x="310" y="689.9999999999998" as="targetPoint" />
            <Array as="points">
              <mxPoint x="450" y="690" />
            </Array>
          </mxGeometry>
        </mxCell>
        <mxCell id="nCR_m23hthAuBQH_t1cP-38" value="Penalize Student" style="html=1;align=center;verticalAlign=middle;rounded=1;absoluteArcSize=1;arcSize=10;dashed=0;whiteSpace=wrap;" vertex="1" parent="1">
          <mxGeometry x="380" y="600" width="140" height="70" as="geometry" />
        </mxCell>
        <mxCell id="nCR_m23hthAuBQH_t1cP-42" value="No" style="text;html=1;align=center;verticalAlign=middle;resizable=0;points=[];autosize=1;strokeColor=none;fillColor=none;" vertex="1" parent="1">
          <mxGeometry x="380" y="518" width="40" height="30" as="geometry" />
        </mxCell>
        <mxCell id="nCR_m23hthAuBQH_t1cP-43" value="" style="endArrow=classic;html=1;rounded=0;exitX=-0.014;exitY=0.509;exitDx=0;exitDy=0;exitPerimeter=0;entryX=0.5;entryY=0;entryDx=0;entryDy=0;" edge="1" parent="1" source="nCR_m23hthAuBQH_t1cP-29" target="nCR_m23hthAuBQH_t1cP-44">
          <mxGeometry width="50" height="50" relative="1" as="geometry">
            <mxPoint x="210" y="900" as="sourcePoint" />
            <mxPoint x="202" y="860" as="targetPoint" />
          </mxGeometry>
        </mxCell>
        <mxCell id="nCR_m23hthAuBQH_t1cP-46" style="edgeStyle=orthogonalEdgeStyle;rounded=0;orthogonalLoop=1;jettySize=auto;html=1;exitX=0.5;exitY=1;exitDx=0;exitDy=0;" edge="1" parent="1" source="nCR_m23hthAuBQH_t1cP-44" target="nCR_m23hthAuBQH_t1cP-45">
          <mxGeometry relative="1" as="geometry" />
        </mxCell>
        <mxCell id="nCR_m23hthAuBQH_t1cP-44" value="Confirm" style="rounded=1;whiteSpace=wrap;html=1;" vertex="1" parent="1">
          <mxGeometry x="140" y="820" width="120" height="60" as="geometry" />
        </mxCell>
        <mxCell id="nCR_m23hthAuBQH_t1cP-49" style="edgeStyle=orthogonalEdgeStyle;rounded=0;orthogonalLoop=1;jettySize=auto;html=1;exitX=0.5;exitY=1;exitDx=0;exitDy=0;entryX=0.5;entryY=0;entryDx=0;entryDy=0;" edge="1" parent="1" source="nCR_m23hthAuBQH_t1cP-45" target="nCR_m23hthAuBQH_t1cP-47">
          <mxGeometry relative="1" as="geometry" />
        </mxCell>
        <mxCell id="nCR_m23hthAuBQH_t1cP-45" value="Save" style="html=1;align=center;verticalAlign=middle;rounded=1;absoluteArcSize=1;arcSize=10;dashed=0;whiteSpace=wrap;" vertex="1" parent="1">
          <mxGeometry x="130" y="920" width="140" height="70" as="geometry" />
        </mxCell>
        <mxCell id="nCR_m23hthAuBQH_t1cP-47" value="" style="ellipse;html=1;shape=endState;fillColor=#000000;strokeColor=#ff0000;" vertex="1" parent="1">
          <mxGeometry x="185" y="1060" width="30" height="30" as="geometry" />
        </mxCell>
        <mxCell id="nCR_m23hthAuBQH_t1cP-50" value="Login" style="html=1;align=center;verticalAlign=middle;rounded=1;absoluteArcSize=1;arcSize=10;dashed=0;whiteSpace=wrap;" vertex="1" parent="1">
          <mxGeometry x="815" y="165" width="140" height="70" as="geometry" />
        </mxCell>
        <mxCell id="nCR_m23hthAuBQH_t1cP-51" value="Student with room function" style="text;html=1;align=center;verticalAlign=middle;resizable=0;points=[];autosize=1;strokeColor=none;fillColor=none;" vertex="1" parent="1">
          <mxGeometry x="800" y="15" width="170" height="30" as="geometry" />
        </mxCell>
        <mxCell id="nCR_m23hthAuBQH_t1cP-52" style="edgeStyle=orthogonalEdgeStyle;rounded=0;orthogonalLoop=1;jettySize=auto;html=1;exitX=0.5;exitY=1;exitDx=0;exitDy=0;" edge="1" parent="1" source="nCR_m23hthAuBQH_t1cP-53" target="nCR_m23hthAuBQH_t1cP-50">
          <mxGeometry relative="1" as="geometry" />
        </mxCell>
        <mxCell id="nCR_m23hthAuBQH_t1cP-53" value="" style="ellipse;html=1;shape=endState;fillColor=#000000;strokeColor=#ff0000;" vertex="1" parent="1">
          <mxGeometry x="870" y="65" width="30" height="30" as="geometry" />
        </mxCell>
        <mxCell id="nCR_m23hthAuBQH_t1cP-56" style="edgeStyle=orthogonalEdgeStyle;rounded=0;orthogonalLoop=1;jettySize=auto;html=1;exitX=0.5;exitY=1;exitDx=0;exitDy=0;entryX=0.38;entryY=0.502;entryDx=0;entryDy=0;entryPerimeter=0;" edge="1" parent="1" source="nCR_m23hthAuBQH_t1cP-50">
          <mxGeometry relative="1" as="geometry">
            <mxPoint x="884.46" y="299.39999999999986" as="targetPoint" />
          </mxGeometry>
        </mxCell>
        <mxCell id="nCR_m23hthAuBQH_t1cP-83" value="" style="edgeStyle=orthogonalEdgeStyle;rounded=0;orthogonalLoop=1;jettySize=auto;html=1;" edge="1" parent="1" source="nCR_m23hthAuBQH_t1cP-81" target="nCR_m23hthAuBQH_t1cP-82">
          <mxGeometry relative="1" as="geometry" />
        </mxCell>
        <mxCell id="nCR_m23hthAuBQH_t1cP-81" value="Book room" style="html=1;align=center;verticalAlign=middle;rounded=1;absoluteArcSize=1;arcSize=10;dashed=0;whiteSpace=wrap;" vertex="1" parent="1">
          <mxGeometry x="815" y="300" width="140" height="70" as="geometry" />
        </mxCell>
        <mxCell id="nCR_m23hthAuBQH_t1cP-84" style="edgeStyle=orthogonalEdgeStyle;rounded=0;orthogonalLoop=1;jettySize=auto;html=1;exitX=1;exitY=0.5;exitDx=0;exitDy=0;" edge="1" parent="1" source="nCR_m23hthAuBQH_t1cP-82">
          <mxGeometry relative="1" as="geometry">
            <mxPoint x="885" y="1160" as="targetPoint" />
            <Array as="points">
              <mxPoint x="1150" y="515" />
              <mxPoint x="1150" y="1150" />
              <mxPoint x="886" y="1150" />
              <mxPoint x="886" y="1160" />
            </Array>
          </mxGeometry>
        </mxCell>
        <mxCell id="nCR_m23hthAuBQH_t1cP-85" style="edgeStyle=orthogonalEdgeStyle;rounded=0;orthogonalLoop=1;jettySize=auto;html=1;exitX=0.5;exitY=1;exitDx=0;exitDy=0;entryX=0.5;entryY=0;entryDx=0;entryDy=0;" edge="1" parent="1" source="nCR_m23hthAuBQH_t1cP-82" target="nCR_m23hthAuBQH_t1cP-86">
          <mxGeometry relative="1" as="geometry">
            <mxPoint x="885" y="660" as="targetPoint" />
          </mxGeometry>
        </mxCell>
        <mxCell id="nCR_m23hthAuBQH_t1cP-82" value="Check Booking total Time for indivitual room (before 3 hour)" style="rhombus;whiteSpace=wrap;html=1;rounded=1;arcSize=10;dashed=0;" vertex="1" parent="1">
          <mxGeometry x="802.5" y="460" width="165" height="110" as="geometry" />
        </mxCell>
        <mxCell id="nCR_m23hthAuBQH_t1cP-88" style="edgeStyle=orthogonalEdgeStyle;rounded=0;orthogonalLoop=1;jettySize=auto;html=1;exitX=0.5;exitY=1;exitDx=0;exitDy=0;entryX=0.5;entryY=0;entryDx=0;entryDy=0;" edge="1" parent="1" source="nCR_m23hthAuBQH_t1cP-86" target="nCR_m23hthAuBQH_t1cP-87">
          <mxGeometry relative="1" as="geometry" />
        </mxCell>
        <mxCell id="nCR_m23hthAuBQH_t1cP-89" style="edgeStyle=orthogonalEdgeStyle;rounded=0;orthogonalLoop=1;jettySize=auto;html=1;exitX=1;exitY=0.5;exitDx=0;exitDy=0;" edge="1" parent="1" source="nCR_m23hthAuBQH_t1cP-86">
          <mxGeometry relative="1" as="geometry">
            <mxPoint x="1150" y="725" as="targetPoint" />
          </mxGeometry>
        </mxCell>
        <mxCell id="nCR_m23hthAuBQH_t1cP-86" value="Check Time for booking another indivitual room (before 1 hour)" style="rhombus;whiteSpace=wrap;html=1;rounded=1;arcSize=10;dashed=0;" vertex="1" parent="1">
          <mxGeometry x="802.5" y="670" width="165" height="110" as="geometry" />
        </mxCell>
        <mxCell id="nCR_m23hthAuBQH_t1cP-90" style="edgeStyle=orthogonalEdgeStyle;rounded=0;orthogonalLoop=1;jettySize=auto;html=1;exitX=1;exitY=0.5;exitDx=0;exitDy=0;" edge="1" parent="1" source="nCR_m23hthAuBQH_t1cP-87">
          <mxGeometry relative="1" as="geometry">
            <mxPoint x="1150" y="885" as="targetPoint" />
          </mxGeometry>
        </mxCell>
        <mxCell id="nCR_m23hthAuBQH_t1cP-94" value="" style="edgeStyle=orthogonalEdgeStyle;rounded=0;orthogonalLoop=1;jettySize=auto;html=1;" edge="1" parent="1" source="nCR_m23hthAuBQH_t1cP-87" target="nCR_m23hthAuBQH_t1cP-93">
          <mxGeometry relative="1" as="geometry">
            <Array as="points">
              <mxPoint x="890" y="1030" />
              <mxPoint x="890" y="1030" />
            </Array>
          </mxGeometry>
        </mxCell>
        <mxCell id="nCR_m23hthAuBQH_t1cP-87" value="Check booking rooms at the same time" style="rhombus;whiteSpace=wrap;html=1;rounded=1;arcSize=10;dashed=0;" vertex="1" parent="1">
          <mxGeometry x="802.5" y="830" width="165" height="110" as="geometry" />
        </mxCell>
        <mxCell id="nCR_m23hthAuBQH_t1cP-91" value="Yes" style="text;html=1;align=center;verticalAlign=middle;resizable=0;points=[];autosize=1;strokeColor=none;fillColor=none;" vertex="1" parent="1">
          <mxGeometry x="890" y="598" width="40" height="30" as="geometry" />
        </mxCell>
        <mxCell id="nCR_m23hthAuBQH_t1cP-92" value="Yes" style="text;html=1;align=center;verticalAlign=middle;resizable=0;points=[];autosize=1;strokeColor=none;fillColor=none;" vertex="1" parent="1">
          <mxGeometry x="890" y="788" width="40" height="30" as="geometry" />
        </mxCell>
        <mxCell id="nCR_m23hthAuBQH_t1cP-97" style="edgeStyle=orthogonalEdgeStyle;rounded=0;orthogonalLoop=1;jettySize=auto;html=1;exitX=0.5;exitY=1;exitDx=0;exitDy=0;" edge="1" parent="1" source="nCR_m23hthAuBQH_t1cP-93">
          <mxGeometry relative="1" as="geometry">
            <mxPoint x="885.4285714285716" y="1210" as="targetPoint" />
          </mxGeometry>
        </mxCell>
        <mxCell id="nCR_m23hthAuBQH_t1cP-93" value="Confirm book rooms" style="whiteSpace=wrap;html=1;rounded=1;arcSize=10;dashed=0;" vertex="1" parent="1">
          <mxGeometry x="825" y="1045" width="120" height="60" as="geometry" />
        </mxCell>
        <mxCell id="nCR_m23hthAuBQH_t1cP-95" value="No" style="text;html=1;align=center;verticalAlign=middle;resizable=0;points=[];autosize=1;strokeColor=none;fillColor=none;" vertex="1" parent="1">
          <mxGeometry x="980" y="688" width="40" height="30" as="geometry" />
        </mxCell>
        <mxCell id="nCR_m23hthAuBQH_t1cP-96" value="No" style="text;html=1;align=center;verticalAlign=middle;resizable=0;points=[];autosize=1;strokeColor=none;fillColor=none;" vertex="1" parent="1">
          <mxGeometry x="1000" y="848" width="40" height="30" as="geometry" />
        </mxCell>
        <mxCell id="nCR_m23hthAuBQH_t1cP-99" style="edgeStyle=orthogonalEdgeStyle;rounded=0;orthogonalLoop=1;jettySize=auto;html=1;exitX=0.5;exitY=1;exitDx=0;exitDy=0;entryX=0.5;entryY=0;entryDx=0;entryDy=0;" edge="1" parent="1" source="nCR_m23hthAuBQH_t1cP-98" target="nCR_m23hthAuBQH_t1cP-100">
          <mxGeometry relative="1" as="geometry">
            <mxPoint x="885.4285714285716" y="1360" as="targetPoint" />
          </mxGeometry>
        </mxCell>
        <mxCell id="nCR_m23hthAuBQH_t1cP-98" value="Save(notify)" style="html=1;align=center;verticalAlign=middle;rounded=1;absoluteArcSize=1;arcSize=10;dashed=0;whiteSpace=wrap;" vertex="1" parent="1">
          <mxGeometry x="815" y="1210" width="140" height="70" as="geometry" />
        </mxCell>
        <mxCell id="nCR_m23hthAuBQH_t1cP-100" value="" style="ellipse;html=1;shape=endState;fillColor=#000000;strokeColor=#ff0000;" vertex="1" parent="1">
          <mxGeometry x="870" y="1380" width="30" height="30" as="geometry" />
        </mxCell>
        <mxCell id="nCR_m23hthAuBQH_t1cP-101" value="Librarian activity" style="text;html=1;align=center;verticalAlign=middle;resizable=0;points=[];autosize=1;strokeColor=none;fillColor=none;" vertex="1" parent="1">
          <mxGeometry x="1425" y="8" width="110" height="30" as="geometry" />
        </mxCell>
        <mxCell id="CpKgbzRygA6BdRfLCNFi-1" style="edgeStyle=orthogonalEdgeStyle;rounded=0;orthogonalLoop=1;jettySize=auto;html=1;exitX=0.5;exitY=1;exitDx=0;exitDy=0;entryX=0.5;entryY=0;entryDx=0;entryDy=0;" edge="1" parent="1" source="nCR_m23hthAuBQH_t1cP-102" target="nCR_m23hthAuBQH_t1cP-103">
          <mxGeometry relative="1" as="geometry" />
        </mxCell>
        <mxCell id="nCR_m23hthAuBQH_t1cP-102" value="" style="ellipse;html=1;shape=endState;fillColor=#000000;strokeColor=#ff0000;" vertex="1" parent="1">
          <mxGeometry x="1465" y="50" width="30" height="30" as="geometry" />
        </mxCell>
        <mxCell id="CpKgbzRygA6BdRfLCNFi-2" style="edgeStyle=orthogonalEdgeStyle;rounded=0;orthogonalLoop=1;jettySize=auto;html=1;exitX=0.5;exitY=1;exitDx=0;exitDy=0;entryX=0.5;entryY=0;entryDx=0;entryDy=0;" edge="1" parent="1" source="nCR_m23hthAuBQH_t1cP-103">
          <mxGeometry relative="1" as="geometry">
            <mxPoint x="1480" y="280" as="targetPoint" />
          </mxGeometry>
        </mxCell>
        <mxCell id="nCR_m23hthAuBQH_t1cP-103" value="Login" style="html=1;align=center;verticalAlign=middle;rounded=1;absoluteArcSize=1;arcSize=10;dashed=0;whiteSpace=wrap;" vertex="1" parent="1">
          <mxGeometry x="1410" y="130" width="140" height="70" as="geometry" />
        </mxCell>
        <mxCell id="CpKgbzRygA6BdRfLCNFi-5" value="" style="html=1;points=[];perimeter=orthogonalPerimeter;fillColor=strokeColor;rotation=90;" vertex="1" parent="1">
          <mxGeometry x="1477.5" y="65" width="5" height="435" as="geometry" />
        </mxCell>
        <mxCell id="CpKgbzRygA6BdRfLCNFi-6" value="" style="endArrow=classic;html=1;rounded=0;exitX=-0.029;exitY=0.905;exitDx=0;exitDy=0;exitPerimeter=0;entryX=0.424;entryY=0.055;entryDx=0;entryDy=0;entryPerimeter=0;" edge="1" parent="1" source="CpKgbzRygA6BdRfLCNFi-5" target="CpKgbzRygA6BdRfLCNFi-10">
          <mxGeometry width="50" height="50" relative="1" as="geometry">
            <mxPoint x="1400" y="390" as="sourcePoint" />
            <mxPoint x="1300" y="460" as="targetPoint" />
            <Array as="points">
              <mxPoint x="1304" y="360" />
            </Array>
          </mxGeometry>
        </mxCell>
        <mxCell id="CpKgbzRygA6BdRfLCNFi-7" value="" style="endArrow=classic;html=1;rounded=0;exitX=1.114;exitY=0.122;exitDx=0;exitDy=0;exitPerimeter=0;" edge="1" parent="1" source="CpKgbzRygA6BdRfLCNFi-5">
          <mxGeometry width="50" height="50" relative="1" as="geometry">
            <mxPoint x="1600" y="420" as="sourcePoint" />
            <mxPoint x="1644" y="460" as="targetPoint" />
          </mxGeometry>
        </mxCell>
        <mxCell id="CpKgbzRygA6BdRfLCNFi-10" value="Manage Resources" style="html=1;align=center;verticalAlign=middle;rounded=1;absoluteArcSize=1;arcSize=10;dashed=0;whiteSpace=wrap;" vertex="1" parent="1">
          <mxGeometry x="1240" y="468" width="140" height="70" as="geometry" />
        </mxCell>
        <mxCell id="CpKgbzRygA6BdRfLCNFi-12" value="No" style="text;html=1;align=center;verticalAlign=middle;resizable=0;points=[];autosize=1;strokeColor=none;fillColor=none;" vertex="1" parent="1">
          <mxGeometry x="1030" y="478" width="40" height="30" as="geometry" />
        </mxCell>
        <mxCell id="CpKgbzRygA6BdRfLCNFi-13" value="Yes" style="text;html=1;align=center;verticalAlign=middle;resizable=0;points=[];autosize=1;strokeColor=none;fillColor=none;" vertex="1" parent="1">
          <mxGeometry x="910" y="958" width="40" height="30" as="geometry" />
        </mxCell>
        <mxCell id="CpKgbzRygA6BdRfLCNFi-14" value="Check Student Penalized" style="html=1;align=center;verticalAlign=middle;rounded=1;absoluteArcSize=1;arcSize=10;dashed=0;whiteSpace=wrap;" vertex="1" parent="1">
          <mxGeometry x="1570" y="460" width="140" height="70" as="geometry" />
        </mxCell>
        <mxCell id="CpKgbzRygA6BdRfLCNFi-15" value="" style="html=1;points=[];perimeter=orthogonalPerimeter;fillColor=strokeColor;rotation=90;" vertex="1" parent="1">
          <mxGeometry x="1494.67" y="503.34" width="5" height="436.66" as="geometry" />
        </mxCell>
        <mxCell id="CpKgbzRygA6BdRfLCNFi-17" style="edgeStyle=orthogonalEdgeStyle;rounded=0;orthogonalLoop=1;jettySize=auto;html=1;exitX=0.5;exitY=1;exitDx=0;exitDy=0;entryX=-0.001;entryY=0.929;entryDx=0;entryDy=0;entryPerimeter=0;" edge="1" parent="1" source="CpKgbzRygA6BdRfLCNFi-10" target="CpKgbzRygA6BdRfLCNFi-15">
          <mxGeometry relative="1" as="geometry" />
        </mxCell>
        <mxCell id="CpKgbzRygA6BdRfLCNFi-18" style="edgeStyle=orthogonalEdgeStyle;rounded=0;orthogonalLoop=1;jettySize=auto;html=1;exitX=0.5;exitY=1;exitDx=0;exitDy=0;entryX=-0.001;entryY=0.17;entryDx=0;entryDy=0;entryPerimeter=0;" edge="1" parent="1" source="CpKgbzRygA6BdRfLCNFi-14" target="CpKgbzRygA6BdRfLCNFi-15">
          <mxGeometry relative="1" as="geometry" />
        </mxCell>
        <mxCell id="CpKgbzRygA6BdRfLCNFi-22" style="edgeStyle=orthogonalEdgeStyle;rounded=0;orthogonalLoop=1;jettySize=auto;html=1;exitX=0.5;exitY=1;exitDx=0;exitDy=0;entryX=0.5;entryY=0;entryDx=0;entryDy=0;" edge="1" parent="1" source="CpKgbzRygA6BdRfLCNFi-19" target="CpKgbzRygA6BdRfLCNFi-20">
          <mxGeometry relative="1" as="geometry" />
        </mxCell>
        <mxCell id="CpKgbzRygA6BdRfLCNFi-19" value="Confirm report" style="rounded=1;whiteSpace=wrap;html=1;" vertex="1" parent="1">
          <mxGeometry x="1437.17" y="800" width="120" height="60" as="geometry" />
        </mxCell>
        <mxCell id="CpKgbzRygA6BdRfLCNFi-23" style="edgeStyle=orthogonalEdgeStyle;rounded=0;orthogonalLoop=1;jettySize=auto;html=1;exitX=0.5;exitY=1;exitDx=0;exitDy=0;entryX=0.481;entryY=0.167;entryDx=0;entryDy=0;entryPerimeter=0;" edge="1" parent="1" source="CpKgbzRygA6BdRfLCNFi-20" target="CpKgbzRygA6BdRfLCNFi-24">
          <mxGeometry relative="1" as="geometry">
            <mxPoint x="1497.4285714285716" y="1069.9999999999998" as="targetPoint" />
          </mxGeometry>
        </mxCell>
        <mxCell id="CpKgbzRygA6BdRfLCNFi-20" value="Saving" style="rounded=1;whiteSpace=wrap;html=1;" vertex="1" parent="1">
          <mxGeometry x="1437.17" y="928" width="120" height="60" as="geometry" />
        </mxCell>
        <mxCell id="CpKgbzRygA6BdRfLCNFi-21" value="" style="endArrow=classic;html=1;rounded=0;exitX=0.166;exitY=0.494;exitDx=0;exitDy=0;exitPerimeter=0;" edge="1" parent="1" source="CpKgbzRygA6BdRfLCNFi-15" target="CpKgbzRygA6BdRfLCNFi-19">
          <mxGeometry width="50" height="50" relative="1" as="geometry">
            <mxPoint x="1600" y="990" as="sourcePoint" />
            <mxPoint x="1650" y="940" as="targetPoint" />
          </mxGeometry>
        </mxCell>
        <mxCell id="CpKgbzRygA6BdRfLCNFi-24" value="" style="ellipse;html=1;shape=endState;fillColor=#000000;strokeColor=#ff0000;" vertex="1" parent="1">
          <mxGeometry x="1483" y="1075" width="30" height="30" as="geometry" />
        </mxCell>
      </root>
    </mxGraphModel>
  </diagram>
  <diagram id="hCiZ6GIHwUTDr75KgJdQ" name="ClassDiagram">
    <mxGraphModel dx="1090" dy="596" grid="1" gridSize="10" guides="1" tooltips="1" connect="1" arrows="1" fold="1" page="1" pageScale="1" pageWidth="850" pageHeight="1100" math="0" shadow="0">
      <root>
        <mxCell id="0" />
        <mxCell id="1" parent="0" />
        <mxCell id="XGSOiSF8crq2vCW9SPs9-1" value="Student" style="swimlane;fontStyle=1;align=center;verticalAlign=top;childLayout=stackLayout;horizontal=1;startSize=26;horizontalStack=0;resizeParent=1;resizeParentMax=0;resizeLast=0;collapsible=1;marginBottom=0;whiteSpace=wrap;html=1;" parent="1" vertex="1">
          <mxGeometry x="-60" y="60" width="160" height="200" as="geometry" />
        </mxCell>
        <mxCell id="XGSOiSF8crq2vCW9SPs9-2" value="+ id: String&lt;div&gt;+name: String&lt;/div&gt;&lt;div&gt;+penalty&lt;/div&gt;" style="text;strokeColor=none;fillColor=none;align=left;verticalAlign=top;spacingLeft=4;spacingRight=4;overflow=hidden;rotatable=0;points=[[0,0.5],[1,0.5]];portConstraint=eastwest;whiteSpace=wrap;html=1;" parent="XGSOiSF8crq2vCW9SPs9-1" vertex="1">
          <mxGeometry y="26" width="160" height="74" as="geometry" />
        </mxCell>
        <mxCell id="XGSOiSF8crq2vCW9SPs9-3" value="" style="line;strokeWidth=1;fillColor=none;align=left;verticalAlign=middle;spacingTop=-1;spacingLeft=3;spacingRight=3;rotatable=0;labelPosition=right;points=[];portConstraint=eastwest;strokeColor=inherit;" parent="XGSOiSF8crq2vCW9SPs9-1" vertex="1">
          <mxGeometry y="100" width="160" height="8" as="geometry" />
        </mxCell>
        <mxCell id="XGSOiSF8crq2vCW9SPs9-4" value="+borrowBook()&lt;div&gt;+returnBook()&lt;/div&gt;&lt;div&gt;+bookStudyRoom()&lt;/div&gt;&lt;div&gt;+checkpenalty():bool()&lt;/div&gt;" style="text;strokeColor=none;fillColor=none;align=left;verticalAlign=top;spacingLeft=4;spacingRight=4;overflow=hidden;rotatable=0;points=[[0,0.5],[1,0.5]];portConstraint=eastwest;whiteSpace=wrap;html=1;" parent="XGSOiSF8crq2vCW9SPs9-1" vertex="1">
          <mxGeometry y="108" width="160" height="92" as="geometry" />
        </mxCell>
        <mxCell id="XGSOiSF8crq2vCW9SPs9-5" value="Book" style="swimlane;fontStyle=1;align=center;verticalAlign=top;childLayout=stackLayout;horizontal=1;startSize=26;horizontalStack=0;resizeParent=1;resizeParentMax=0;resizeLast=0;collapsible=1;marginBottom=0;whiteSpace=wrap;html=1;" parent="1" vertex="1">
          <mxGeometry x="210" y="60" width="160" height="180" as="geometry" />
        </mxCell>
        <mxCell id="XGSOiSF8crq2vCW9SPs9-6" value="+ bookId: String&lt;div&gt;+ title:String&lt;/div&gt;&lt;div&gt;+ author:string&lt;/div&gt;&lt;div&gt;+ isAvailable boolean&lt;/div&gt;" style="text;strokeColor=none;fillColor=none;align=left;verticalAlign=top;spacingLeft=4;spacingRight=4;overflow=hidden;rotatable=0;points=[[0,0.5],[1,0.5]];portConstraint=eastwest;whiteSpace=wrap;html=1;" parent="XGSOiSF8crq2vCW9SPs9-5" vertex="1">
          <mxGeometry y="26" width="160" height="84" as="geometry" />
        </mxCell>
        <mxCell id="XGSOiSF8crq2vCW9SPs9-7" value="" style="line;strokeWidth=1;fillColor=none;align=left;verticalAlign=middle;spacingTop=-1;spacingLeft=3;spacingRight=3;rotatable=0;labelPosition=right;points=[];portConstraint=eastwest;strokeColor=inherit;" parent="XGSOiSF8crq2vCW9SPs9-5" vertex="1">
          <mxGeometry y="110" width="160" height="8" as="geometry" />
        </mxCell>
        <mxCell id="XGSOiSF8crq2vCW9SPs9-8" value="+borrowDate:Date&lt;div&gt;+dueDate:Date&lt;/div&gt;&lt;div&gt;+returnDate:Date&lt;/div&gt;" style="text;strokeColor=none;fillColor=none;align=left;verticalAlign=top;spacingLeft=4;spacingRight=4;overflow=hidden;rotatable=0;points=[[0,0.5],[1,0.5]];portConstraint=eastwest;whiteSpace=wrap;html=1;" parent="XGSOiSF8crq2vCW9SPs9-5" vertex="1">
          <mxGeometry y="118" width="160" height="62" as="geometry" />
        </mxCell>
        <mxCell id="02kZg-_eBCyppzcfQH6W-5" value="Booking" style="swimlane;fontStyle=1;align=center;verticalAlign=top;childLayout=stackLayout;horizontal=1;startSize=26;horizontalStack=0;resizeParent=1;resizeParentMax=0;resizeLast=0;collapsible=1;marginBottom=0;whiteSpace=wrap;html=1;" parent="1" vertex="1">
          <mxGeometry x="-60" y="370" width="160" height="200" as="geometry" />
        </mxCell>
        <mxCell id="02kZg-_eBCyppzcfQH6W-6" value="&lt;div&gt;+Id : String&lt;div&gt;+location&lt;/div&gt;&lt;/div&gt;+startTime: DateTime&lt;div&gt;+endTime: DateTime&lt;/div&gt;" style="text;strokeColor=none;fillColor=none;align=left;verticalAlign=top;spacingLeft=4;spacingRight=4;overflow=hidden;rotatable=0;points=[[0,0.5],[1,0.5]];portConstraint=eastwest;whiteSpace=wrap;html=1;" parent="02kZg-_eBCyppzcfQH6W-5" vertex="1">
          <mxGeometry y="26" width="160" height="74" as="geometry" />
        </mxCell>
        <mxCell id="02kZg-_eBCyppzcfQH6W-7" value="" style="line;strokeWidth=1;fillColor=none;align=left;verticalAlign=middle;spacingTop=-1;spacingLeft=3;spacingRight=3;rotatable=0;labelPosition=right;points=[];portConstraint=eastwest;strokeColor=inherit;" parent="02kZg-_eBCyppzcfQH6W-5" vertex="1">
          <mxGeometry y="100" width="160" height="8" as="geometry" />
        </mxCell>
        <mxCell id="02kZg-_eBCyppzcfQH6W-8" value="+checkDuration()&lt;div&gt;+checkOverLap()&lt;br&gt;+checkDailyTotal()&lt;/div&gt;" style="text;strokeColor=none;fillColor=none;align=left;verticalAlign=top;spacingLeft=4;spacingRight=4;overflow=hidden;rotatable=0;points=[[0,0.5],[1,0.5]];portConstraint=eastwest;whiteSpace=wrap;html=1;" parent="02kZg-_eBCyppzcfQH6W-5" vertex="1">
          <mxGeometry y="108" width="160" height="92" as="geometry" />
        </mxCell>
        <mxCell id="02kZg-_eBCyppzcfQH6W-13" value="" style="endArrow=none;html=1;rounded=0;entryX=0;entryY=0.5;entryDx=0;entryDy=0;exitX=1;exitY=0.5;exitDx=0;exitDy=0;" parent="1" source="XGSOiSF8crq2vCW9SPs9-2" target="XGSOiSF8crq2vCW9SPs9-6" edge="1">
          <mxGeometry width="50" height="50" relative="1" as="geometry">
            <mxPoint x="170" y="160" as="sourcePoint" />
            <mxPoint x="180" y="128" as="targetPoint" />
          </mxGeometry>
        </mxCell>
        <mxCell id="02kZg-_eBCyppzcfQH6W-15" value="*" style="text;html=1;align=center;verticalAlign=middle;resizable=0;points=[];autosize=1;strokeColor=none;fillColor=none;" parent="1" vertex="1">
          <mxGeometry x="165" y="100" width="30" height="30" as="geometry" />
        </mxCell>
        <mxCell id="02kZg-_eBCyppzcfQH6W-16" value="*" style="text;html=1;align=center;verticalAlign=middle;resizable=0;points=[];autosize=1;strokeColor=none;fillColor=none;" parent="1" vertex="1">
          <mxGeometry x="100" y="90" width="30" height="30" as="geometry" />
        </mxCell>
        <mxCell id="02kZg-_eBCyppzcfQH6W-21" value="" style="endArrow=none;html=1;rounded=0;entryX=0.448;entryY=-0.016;entryDx=0;entryDy=0;exitX=0.473;exitY=0.996;exitDx=0;exitDy=0;exitPerimeter=0;entryPerimeter=0;" parent="1" source="XGSOiSF8crq2vCW9SPs9-4" target="02kZg-_eBCyppzcfQH6W-5" edge="1">
          <mxGeometry width="50" height="50" relative="1" as="geometry">
            <mxPoint x="70" y="290" as="sourcePoint" />
            <mxPoint x="180" y="295" as="targetPoint" />
          </mxGeometry>
        </mxCell>
        <mxCell id="02kZg-_eBCyppzcfQH6W-22" value="*" style="text;html=1;align=center;verticalAlign=middle;resizable=0;points=[];autosize=1;strokeColor=none;fillColor=none;" parent="1" vertex="1">
          <mxGeometry x="15" y="258" width="30" height="30" as="geometry" />
        </mxCell>
        <mxCell id="02kZg-_eBCyppzcfQH6W-23" value="*" style="text;html=1;align=center;verticalAlign=middle;resizable=0;points=[];autosize=1;strokeColor=none;fillColor=none;" parent="1" vertex="1">
          <mxGeometry x="15" y="338" width="30" height="30" as="geometry" />
        </mxCell>
        <mxCell id="02kZg-_eBCyppzcfQH6W-24" value="&lt;div&gt;A student can only borrow a book if penaltyEndDate is not set or has passed.&lt;/div&gt;&lt;div&gt;&lt;br&gt;&lt;/div&gt;&lt;div&gt;If a book is returned after dueDate (1 month from borrow), set penaltyEndDate to return date + 1 month.&lt;/div&gt;&lt;div&gt;&lt;br&gt;&lt;/div&gt;&lt;div&gt;Penalized students (with active penaltyEndDate) cannot borrow books&lt;/div&gt;" style="text;html=1;align=left;verticalAlign=middle;resizable=0;points=[];autosize=1;strokeColor=none;fillColor=none;" parent="1" vertex="1">
          <mxGeometry x="220" y="360" width="570" height="90" as="geometry" />
        </mxCell>
        <mxCell id="02kZg-_eBCyppzcfQH6W-25" value="Contrants:" style="text;html=1;align=center;verticalAlign=middle;resizable=0;points=[];autosize=1;strokeColor=none;fillColor=none;" parent="1" vertex="1">
          <mxGeometry x="225" y="330" width="80" height="30" as="geometry" />
        </mxCell>
        <mxCell id="02kZg-_eBCyppzcfQH6W-27" value="Duration per Room: endTime - startTime ≤ 1 hour for each Booking instance.&#xa;&#xa;No Overlap: Student cannot have overlapping Bookings Rooms&#xa;&#xa;Daily Limit: Sum of all (endTime - startTime) for a Student on the same day ≤ 3 hours (enforced by checkDailyTotal())." style="text;whiteSpace=wrap;" parent="1" vertex="1">
          <mxGeometry x="220" y="460" width="560" height="80" as="geometry" />
        </mxCell>
      </root>
    </mxGraphModel>
  </diagram>
</mxfile>
